<?xml version="1.0" encoding="utf-8"?>
<!-- Generator: Adobe Illustrator 15.0.2, SVG Export Plug-In  -->
<!DOCTYPE svg PUBLIC "-//W3C//DTD SVG 1.1//EN" "http://www.w3.org/Graphics/SVG/1.1/DTD/svg11.dtd" [
	<!ENTITY ns_flows "http://ns.adobe.com/Flows/1.0/">
]>
<svg version="1.1"
	 xmlns="http://www.w3.org/2000/svg" xmlns:xlink="http://www.w3.org/1999/xlink" xmlns:a="http://ns.adobe.com/AdobeSVGViewerExtensions/3.0/"
	 x="0px" y="0px" width="482px" height="478px" viewBox="-23.98 -20.596 482 478"
	 overflow="visible" enable-background="new -23.98 -20.596 482 478" xml:space="preserve">
<defs>
</defs>
<g>
	<g>
		<path fill="#FFFFFF" d="M126.941,295.912c0,0,7.562-6.615,2.279-14.588c-9.91-13.726-16.408-29.472-19.07-46.193
			c-1.765-9.235-11.801-8.696-11.801-8.696H80.885c1.953,31.248,14.367,59.658,33.781,81.757L126.941,295.912z M354.453,226.435
			h-18.65c0,0-9.682,0.442-10.809,9.862c-3.758,22.041-14.195,42.342-30.328,58.479c-20.568,20.565-47.906,31.895-76.998,31.895
			c-23.914,0-46.645-7.668-65.418-21.819c-8.127-4.864-14.635,3.222-14.635,3.222l-11.605,11.608
			c24.284,21.854,56.414,35.162,91.658,35.162C290.457,354.843,349.986,298.096,354.453,226.435z M80.809,210.29h17.367
			c0,0,9.525,0.832,11.784-8.596c3.378-22.979,13.981-44.186,30.716-60.916c16.194-16.191,36.594-26.658,58.738-30.37
			c10.738-2.134,9.912-10.638,9.912-10.638V80.977C139.98,85.145,84.56,140.844,80.809,210.29z M225.465,80.944v18.691
			c0,0-0.262,8.94,9.902,10.679c22.359,3.631,42.959,14.135,59.299,30.465c16.838,16.854,27.48,38.243,30.781,61.418
			c2.504,9.146,12.16,8.093,12.16,8.093h16.916C350.775,140.656,295.061,84.849,225.465,80.944z M80.744,364.939L68.82,376.866
			c8.504,7.967,17.669,15.234,27.358,21.769l21.927-19.353c-8.043-4.953-15.699-10.517-22.941-16.652
			C87.032,357.568,80.744,364.939,80.744,364.939z M209.137,378.136c0,0,0.793-9.487-8.488-11.704
			c-10.736-1.102-19.801-3.14-29.829-6.444l2.552,30.053c11.572,2.958,23.596,4.81,35.955,5.38L209.137,378.136z M110.08,336.686
			l-12.363,12.092c9.367,8.527,19.428,15.87,29.963,22.039l22.434-19.808c-9.475-4.771-17.355-9.75-25.756-16.6
			C116.219,329.418,110.08,336.686,110.08,336.686z M71.717,338.982c-5.619-6.749-10.731-13.852-15.352-21.279l-18.95,22.465
			c6.054,8.897,12.746,17.351,20.034,25.248l11.998-12.004C69.447,353.412,76.877,347.149,71.717,338.982z M97.902,324.725
			c0,0,7.259-6.139,2.27-14.276c-6.73-8.267-11.658-16.014-16.343-25.271l-19.441,23.022c6.043,10.152,13.171,19.841,21.417,28.887
			L97.902,324.725z M3.77,176.202C1.746,186.682,0.461,197.428,0,208.38v18.87c0.486,11.125,1.805,22.039,3.884,32.67l29.194,1.81
			c-3.395-14.292-5.119-28.985-5.119-43.95c0-15.004,1.738-29.736,5.152-44.06L3.77,176.202z M45.608,172.655
			c-3.772,14.413-5.773,29.533-5.773,45.125c0,15.448,1.977,30.431,5.669,44.724l29.87,1.847c-4.84-14.834-7.374-30.51-7.374-46.57
			c0-16.459,2.65-32.51,7.73-47.674L45.608,172.655z M210.311,16.869V0c-11.966,0.401-23.887,1.786-35.677,4.151l-1.8,29.203
			c9.486-2.289,19.141-3.847,28.913-4.658C211.082,26.525,210.311,16.869,210.311,16.869z M83.533,83.638
			c10.418-10.426,21.871-19.504,34.234-27.162L95.316,37.529c-11.032,7.493-21.35,15.952-30.804,25.291l-0.163,0.157
			c-10.32,10.23-19.617,21.476-27.719,33.582l19.371,21.936C63.749,105.91,72.934,94.236,83.533,83.638z M64.236,127.82
			l19.804,22.423c7.072-13.977,16.397-26.892,27.794-38.299c11.475-11.462,24.488-20.832,38.559-27.921L127.34,64.571
			C101.328,79.946,79.555,101.753,64.236,127.82z M235.047,28.843c8.635,0.789,17.188,2.173,25.594,4.125l-2.473-29.272
			c-10.484-1.977-21.088-3.2-31.721-3.633v16.976C226.447,17.039,225.625,26.72,235.047,28.843z M354.918,70.735l11.941-11.925
			c-8.809-8.244-18.309-15.752-28.393-22.456l-21.945,19.384c8.42,5.13,16.434,10.899,23.979,17.309
			C348.648,78.112,354.918,70.735,354.918,70.735z M325.596,98.996l12.359-12.098c-9.686-8.822-20.109-16.367-31.051-22.671
			l-17.598,15.547l-4.508,4.512c9.812,4.881,17.887,9.951,26.52,16.98C319.451,106.262,325.596,98.996,325.596,98.996z
			 M264.234,75.481l-2.539-30.031c-14.078-3.593-28.822-5.514-44.027-5.514c-15.77,0-31.055,2.063-45.61,5.922l-1.856,29.914
			c15.108-5.034,31.086-7.657,47.467-7.657C233.736,68.115,249.398,70.641,264.234,75.481z M227.318,378.185l-0.186,17.292
			c12.268-0.575,24.203-2.396,35.688-5.325l1.846-29.812c-9.635,3.123-18.463,5.076-28.867,6.142
			C226.523,368.7,227.318,378.185,227.318,378.185z M338.883,363.841c-6.48,5.385-13.279,10.303-20.377,14.764l22.436,18.928
			c8.588-5.904,16.721-12.383,24.367-19.421l-12.006-11.998C353.303,366.113,347.037,358.681,338.883,363.841z M371.416,307.174
			l-19.832-22.443c-7.115,14.198-16.527,27.319-28.08,38.876c-11.211,11.219-23.906,20.425-37.625,27.463l22.982,19.388
			C334.676,355.001,356.254,333.198,371.416,307.174z M395.221,226.781l-17.301,0.181c0,0-9.484-0.792-11.699,8.493
			c-1.039,10.213-2.941,18.902-5.967,28.345l29.955-2.536C392.953,250.144,394.668,238.615,395.221,226.781z M362.516,340.386
			c-5.059,8.146,2.312,14.424,2.312,14.424l11.93,11.932c8.191-8.763,15.674-18.201,22.342-28.226l-19.371-21.938
			C374.621,324.935,368.883,332.885,362.516,340.386z M431.375,175.219l-29.221-1.811c3.461,14.425,5.215,29.259,5.215,44.372
			c0,14.43-1.594,28.616-4.754,42.432l29.258-2.479c2.406-12.949,3.672-26.304,3.672-39.954
			C435.545,203.21,434.105,188.982,431.375,175.219z M377.654,208.571l17.279,0.189c-0.572-12.425-2.43-24.515-5.436-36.141
			l-29.826-1.838c3.193,9.802,5.191,18.742,6.281,29.3C368.164,209.372,377.654,208.571,377.654,208.571z M363.951,96.698
			c5.438,6.511,10.383,13.361,14.863,20.509l18.941-22.439c-5.924-8.628-12.445-16.827-19.527-24.504l-12.002,12.002
			C366.227,82.267,358.787,88.528,363.951,96.698z M349.875,98.596l-12.092,12.357c0,0-7.271,6.145-2.27,14.279
			c6.514,8.012,11.346,15.542,15.922,24.429l19.383-22.979C364.889,116.815,357.908,107.4,349.875,98.596z M174.43,402.538
			l2.479,29.299c13.198,2.509,26.834,3.823,40.76,3.823c14.58,0,28.822-1.444,42.6-4.183l1.807-29.223
			c-14.438,3.468-29.275,5.228-44.406,5.228C202.953,407.482,188.504,405.819,174.43,402.538z"/>
	</g>
</g>
<g>
	<path fill="#FFFFFF" d="M242.699,122.667l-95.097,25.481l-25.479,95.096l69.613,69.615l95.097-25.481l25.48-95.096L242.699,122.667
		z M234.375,238.667l-29.947,32.288v-92.961h-14.561l30.555-11.283h13.953V238.667z"/>
</g>
</svg>
