<?xml version="1.0" encoding="utf-8"?>
<!-- Generator: Adobe Illustrator 15.0.2, SVG Export Plug-In  -->
<!DOCTYPE svg PUBLIC "-//W3C//DTD SVG 1.1//EN" "http://www.w3.org/Graphics/SVG/1.1/DTD/svg11.dtd" [
	<!ENTITY ns_flows "http://ns.adobe.com/Flows/1.0/">
]>
<svg version="1.1"
	 xmlns="http://www.w3.org/2000/svg" xmlns:xlink="http://www.w3.org/1999/xlink" xmlns:a="http://ns.adobe.com/AdobeSVGViewerExtensions/3.0/"
	 x="0px" y="0px" width="1082px" height="478px" viewBox="-42.332 -20.596 1082 478"
	 overflow="visible" enable-background="new -42.332 -20.596 1082 478" xml:space="preserve">
<defs>
</defs>
<g>
	<g>
		<path fill="#FFFFFF" d="M58.089,217.219c-3.363-1.812-7.143-3.47-11.203-4.911c-3.915-1.384-7.938-2.728-11.936-3.958
			c-3.856-1.206-7.402-2.488-10.548-3.794c-2.887-1.22-5.236-2.765-6.998-4.625c-1.534-1.614-2.285-3.42-2.285-5.529
			c0-2.93,1.812-5.604,5.53-8.177c4.011-2.751,9.133-4.146,15.201-4.146c2.919,0,5.745,0.309,8.422,0.921
			c2.67,0.62,4.983,1.406,6.879,2.359c1.974,0.997,3.579,1.906,4.746,2.696c1.147,0.771,2.151,1.566,2.974,2.331l2.118,1.973
			l6.342-7.539l-1.959-1.847c-1.207-1.125-2.604-2.249-4.188-3.279c-1.536-1.026-3.521-2.17-5.9-3.385
			c-2.5-1.295-5.486-2.323-8.879-3.104c-3.37-0.782-6.921-1.171-10.555-1.171c-5.145,0-10.061,0.877-14.601,2.605
			c-4.642,1.775-8.47,4.378-11.374,7.742c-3.067,3.534-4.612,7.577-4.612,12.022c0,3.225,0.77,6.2,2.285,8.81
			c1.488,2.544,3.486,4.709,5.968,6.43c2.283,1.59,4.918,3.057,7.854,4.373c2.863,1.283,5.913,2.435,9.063,3.427l9.191,2.9
			c2.974,0.938,5.832,1.987,8.48,3.111c2.596,1.089,4.913,2.303,6.907,3.585c1.769,1.158,3.204,2.576,4.239,4.243
			c0.976,1.563,1.449,3.283,1.449,5.286c0,3.939-2.223,7.385-6.792,10.575c-4.83,3.364-10.908,5.065-18.06,5.065
			c-3.413,0-6.735-0.371-9.873-1.131c-3.119-0.757-5.81-1.729-8.02-2.92c-2.295-1.22-4.18-2.382-5.594-3.407
			c-1.385-1.003-2.581-2.025-3.552-3.022l-1.963-1.988L0,246.703l1.87,2.003c1.005,1.076,2.187,2.154,3.508,3.224
			c1.322,1.081,3.074,2.263,5.182,3.541c2.136,1.268,4.405,2.403,6.755,3.362c2.377,0.972,5.223,1.792,8.484,2.447
			c3.245,0.639,6.623,0.97,10.052,0.97c5.986,0,11.645-1.057,16.817-3.14c5.271-2.116,9.58-5.154,12.812-9.014
			c3.366-4.029,5.088-8.588,5.088-13.527c0-4.342-1.206-8.249-3.581-11.575C64.698,221.784,61.715,219.172,58.089,217.219z
			 M217.162,224.283c0.833-0.207,1.626-0.433,2.414-0.677c2.988-0.961,5.303-2.136,7.013-3.532c3.294-2.542,5.833-5.681,7.567-9.3
			c1.733-3.616,2.617-7.451,2.617-11.379c0-3.478-0.685-6.848-2.035-10.017c-1.333-3.15-3.285-6.028-5.803-8.562
			c-2.549-2.581-5.858-4.645-9.831-6.151c-3.922-1.495-8.343-2.248-13.138-2.248h-31.753v88.775h10.116v-34.822h8.182
			c2.438,0,4.371,0.037,5.786,0.117c1.297,0.072,2.786,0.235,4.408,0.541c1.415,0.256,2.586,0.634,3.457,1.101
			c0.915,0.497,1.901,1.24,2.937,2.189c1.033,0.971,2.033,2.197,2.967,3.652l12.589,19.589c1.93,3.001,3.877,4.979,5.955,6.062
			c2.013,1.038,4.348,1.572,6.94,1.572l5.325-0.047l-22.329-32.722C219.539,226.882,218.404,225.5,217.162,224.283z
			 M206.053,216.257H184.33v-33.72h21.723c3.462,0,6.604,0.504,9.335,1.519c2.65,0.981,4.785,2.288,6.355,3.865
			c1.606,1.632,2.841,3.449,3.671,5.401c0.825,1.961,1.239,3.997,1.239,6.073c0,1.961-0.406,3.921-1.193,5.833
			c-0.794,1.948-1.982,3.776-3.562,5.457c-1.502,1.603-3.62,2.934-6.31,3.971C212.835,215.708,209.625,216.257,206.053,216.257z
			 M267.953,182.45l55.103,0.126l3.803-10.154l-69.026-0.09v88.861h10.121v-36.437l38.204,0.11l3.938-10.162l-42.143-0.072V182.45z
			 M488.838,261.193h12.002v-88.861h-12.002V261.193z M351.291,172.259l-34.603,87.122l9.474,3.239l9.097-22.946h38.844
			l6.076,14.208c1.899,2.965,3.825,4.927,5.887,5.982c1.988,1.049,4.306,1.564,6.876,1.564l1.635,0.027l-36.209-89.195H351.291z
			 M339.217,229.663l15.695-39.225l15.6,39.225H339.217z M143.707,183.807l-0.042,1.88l0.042,0.008v43.092
			c0,6.518-2.234,11.928-6.837,16.52c-4.589,4.591-11.844,6.83-18.312,6.83c-6.519,0-11.939-2.244-16.575-6.86
			c-4.637-4.624-6.885-10.013-6.885-16.49v-56.368H84.989v56.41c0,9.187,3.317,17.142,9.876,23.633
			c6.541,6.497,14.512,9.789,23.693,9.789c9.173,0,18.984-3.292,25.475-9.789c6.493-6.499,9.788-14.449,9.788-23.633v-44.266
			l0.05-11.921C143.484,174.356,143.707,183.807,143.707,183.807z M447.245,224.283c0.828-0.207,1.627-0.433,2.406-0.677
			c2.999-0.961,5.311-2.136,7.026-3.532c3.283-2.542,5.827-5.681,7.561-9.3c1.742-3.616,2.619-7.451,2.619-11.379
			c0-3.478-0.676-6.848-2.023-10.017c-1.336-3.15-3.295-6.028-5.807-8.562c-2.555-2.581-5.871-4.645-9.84-6.151
			c-3.92-1.495-8.342-2.248-13.133-2.248h-31.758v88.775h10.111v-34.822h8.191c2.437,0,4.364,0.037,5.783,0.117
			c1.314,0.072,2.782,0.235,4.412,0.541c1.422,0.256,2.588,0.634,3.453,1.101c0.921,0.497,1.903,1.24,2.945,2.189
			c1.024,0.971,2.034,2.197,2.969,3.652l12.587,19.589c1.921,3.001,3.862,4.979,5.946,6.062c2.009,1.038,4.349,1.572,6.951,1.572
			l5.317-0.047l-22.338-32.722C449.62,226.882,448.487,225.5,447.245,224.283z M436.144,216.257h-21.735v-33.72h21.735
			c3.464,0,6.604,0.504,9.335,1.519c2.647,0.981,4.785,2.288,6.354,3.865c1.607,1.632,2.845,3.449,3.667,5.401
			c0.818,1.961,1.243,3.997,1.243,6.073c0,1.961-0.406,3.921-1.194,5.833c-0.799,1.948-1.989,3.776-3.555,5.457
			c-1.505,1.603-3.629,2.934-6.308,3.971C442.92,215.708,439.714,216.257,436.144,216.257z M689.59,295.912
			c0,0,7.562-6.615,2.279-14.588c-9.91-13.726-16.408-29.472-19.07-46.193c-1.765-9.235-11.801-8.696-11.801-8.696h-17.465
			c1.953,31.248,14.367,59.658,33.781,81.757L689.59,295.912z M917.102,226.435h-18.65c0,0-9.682,0.442-10.809,9.862
			c-3.758,22.041-14.195,42.342-30.328,58.479c-20.568,20.565-47.906,31.895-76.998,31.895c-23.914,0-46.645-7.668-65.418-21.819
			c-8.127-4.864-14.635,3.222-14.635,3.222l-11.605,11.608c24.284,21.854,56.414,35.162,91.658,35.162
			C853.105,354.843,912.635,298.096,917.102,226.435z M643.457,210.29h17.367c0,0,9.525,0.832,11.784-8.596
			c3.378-22.979,13.981-44.186,30.716-60.916c16.194-16.191,36.594-26.658,58.738-30.37c10.738-2.134,9.912-10.638,9.912-10.638
			V80.977C702.629,85.145,647.208,140.844,643.457,210.29z M788.113,80.944v18.691c0,0-0.262,8.94,9.902,10.679
			c22.359,3.631,42.959,14.135,59.299,30.465c16.838,16.854,27.48,38.243,30.781,61.418c2.504,9.146,12.16,8.093,12.16,8.093h16.916
			C913.424,140.656,857.709,84.849,788.113,80.944z M643.393,364.939l-11.924,11.927c8.504,7.967,17.669,15.234,27.358,21.769
			l21.927-19.353c-8.043-4.953-15.699-10.517-22.941-16.652C649.681,357.568,643.393,364.939,643.393,364.939z M771.785,378.136
			c0,0,0.793-9.487-8.488-11.704c-10.736-1.102-19.801-3.14-29.829-6.444l2.552,30.053c11.572,2.958,23.596,4.81,35.955,5.38
			L771.785,378.136z M672.729,336.686l-12.363,12.092c9.367,8.527,19.428,15.87,29.963,22.039l22.434-19.808
			c-9.475-4.771-17.355-9.75-25.756-16.6C678.867,329.418,672.729,336.686,672.729,336.686z M634.365,338.982
			c-5.619-6.749-10.731-13.852-15.352-21.279l-18.95,22.465c6.054,8.897,12.746,17.351,20.034,25.248l11.998-12.004
			C632.096,353.412,639.525,347.149,634.365,338.982z M660.551,324.725c0,0,7.259-6.139,2.27-14.276
			c-6.73-8.267-11.658-16.014-16.343-25.271l-19.441,23.022c6.043,10.152,13.171,19.841,21.417,28.887L660.551,324.725z
			 M566.418,176.202c-2.023,10.479-3.309,21.226-3.77,32.178v18.87c0.486,11.125,1.805,22.039,3.884,32.67l29.194,1.81
			c-3.395-14.292-5.119-28.985-5.119-43.95c0-15.004,1.738-29.736,5.152-44.06L566.418,176.202z M608.257,172.655
			c-3.772,14.413-5.773,29.533-5.773,45.125c0,15.448,1.977,30.431,5.669,44.724l29.87,1.847c-4.84-14.834-7.374-30.51-7.374-46.57
			c0-16.459,2.65-32.51,7.73-47.674L608.257,172.655z M772.959,16.869V0c-11.966,0.401-23.887,1.786-35.677,4.151l-1.8,29.203
			c9.486-2.289,19.141-3.847,28.913-4.658C773.73,26.525,772.959,16.869,772.959,16.869z M646.182,83.638
			c10.418-10.426,21.871-19.504,34.234-27.162l-22.451-18.947c-11.032,7.493-21.35,15.952-30.804,25.291l-0.163,0.157
			c-10.32,10.23-19.617,21.476-27.719,33.582l19.371,21.936C626.397,105.91,635.582,94.236,646.182,83.638z M626.885,127.82
			l19.804,22.423c7.072-13.977,16.397-26.892,27.794-38.299c11.475-11.462,24.488-20.832,38.559-27.921l-23.053-19.452
			C663.977,79.946,642.203,101.753,626.885,127.82z M797.695,28.843c8.635,0.789,17.188,2.173,25.594,4.125l-2.473-29.272
			c-10.484-1.977-21.088-3.2-31.721-3.633v16.976C789.096,17.039,788.273,26.72,797.695,28.843z M917.566,70.735l11.941-11.925
			c-8.809-8.244-18.309-15.752-28.393-22.456L879.17,55.738c8.42,5.13,16.434,10.899,23.979,17.309
			C911.297,78.112,917.566,70.735,917.566,70.735z M888.244,98.996l12.359-12.098c-9.686-8.822-20.109-16.367-31.051-22.671
			l-17.598,15.547l-4.508,4.512c9.812,4.881,17.887,9.951,26.52,16.98C882.1,106.262,888.244,98.996,888.244,98.996z
			 M826.883,75.481l-2.539-30.031c-14.078-3.593-28.822-5.514-44.027-5.514c-15.77,0-31.055,2.063-45.61,5.922l-1.856,29.914
			c15.108-5.034,31.086-7.657,47.467-7.657C796.385,68.115,812.047,70.641,826.883,75.481z M789.967,378.185l-0.186,17.292
			c12.268-0.575,24.203-2.396,35.688-5.325l1.846-29.812c-9.635,3.123-18.463,5.076-28.867,6.142
			C789.172,368.7,789.967,378.185,789.967,378.185z M901.531,363.841c-6.48,5.385-13.279,10.303-20.377,14.764l22.436,18.928
			c8.588-5.904,16.721-12.383,24.367-19.421l-12.006-11.998C915.951,366.113,909.686,358.681,901.531,363.841z M934.064,307.174
			l-19.832-22.443c-7.115,14.198-16.527,27.319-28.08,38.876c-11.211,11.219-23.906,20.425-37.625,27.463l22.982,19.388
			C897.324,355.001,918.902,333.198,934.064,307.174z M957.869,226.781l-17.301,0.181c0,0-9.484-0.792-11.699,8.493
			c-1.039,10.213-2.941,18.902-5.967,28.345l29.955-2.536C955.602,250.144,957.316,238.615,957.869,226.781z M925.164,340.386
			c-5.059,8.146,2.312,14.424,2.312,14.424l11.93,11.932c8.191-8.763,15.674-18.201,22.342-28.226l-19.371-21.938
			C937.27,324.935,931.531,332.885,925.164,340.386z M994.023,175.219l-29.221-1.811c3.461,14.425,5.215,29.259,5.215,44.372
			c0,14.43-1.594,28.616-4.754,42.432l29.258-2.479c2.406-12.949,3.672-26.304,3.672-39.954
			C998.193,203.21,996.754,188.982,994.023,175.219z M940.303,208.571l17.279,0.189c-0.572-12.425-2.43-24.515-5.436-36.141
			l-29.826-1.838c3.193,9.802,5.191,18.742,6.281,29.3C930.812,209.372,940.303,208.571,940.303,208.571z M926.6,96.698
			c5.438,6.511,10.383,13.361,14.863,20.509l18.941-22.439c-5.924-8.628-12.445-16.827-19.527-24.504l-12.002,12.002
			C928.875,82.267,921.436,88.528,926.6,96.698z M912.523,98.596l-12.092,12.357c0,0-7.271,6.145-2.27,14.279
			c6.514,8.012,11.346,15.542,15.922,24.429l19.383-22.979C927.537,116.815,920.557,107.4,912.523,98.596z M737.078,402.538
			l2.479,29.299c13.198,2.509,26.834,3.823,40.76,3.823c14.58,0,28.822-1.444,42.6-4.183l1.807-29.223
			c-14.438,3.468-29.275,5.228-44.406,5.228C765.602,407.482,751.152,405.819,737.078,402.538z"/>
	</g>
</g>
<path fill="#FFFFFF" d="M805.348,122.667l-95.097,25.481l-25.479,95.096l69.613,69.615l95.097-25.481l25.48-95.096L805.348,122.667z
	 M797.023,238.667l-29.947,32.288v-92.961h-14.561l30.555-11.283h13.953V238.667z"/>
</svg>
