<?xml version="1.0" encoding="utf-8"?>
<!-- Generator: Adobe Illustrator 15.0.2, SVG Export Plug-In . SVG Version: 6.00 Build 0)  -->
<!DOCTYPE svg PUBLIC "-//W3C//DTD SVG 1.1//EN" "http://www.w3.org/Graphics/SVG/1.1/DTD/svg11.dtd">
<svg version="1.1" id="Layer_1" xmlns="http://www.w3.org/2000/svg" xmlns:xlink="http://www.w3.org/1999/xlink" x="0px" y="0px"
	 width="484px" height="478px" viewBox="0 0 484 478" enable-background="new 0 0 484 478" xml:space="preserve">
<g id="logo">
	<path id="pato28" fill="none" stroke="#FFFFFF" stroke-width="3" stroke-miterlimit="10" d="M241.896,428.652
		c-14.715,0-29.164-1.663-43.238-4.944l2.479,29.299c13.198,2.51,26.834,3.823,40.76,3.823c14.58,0,28.822-1.444,42.601-4.183
		l1.807-29.224C271.864,426.893,257.026,428.652,241.896,428.652z"/>
	<path id="pato27" fill="none" stroke="#FFFFFF" stroke-width="3" stroke-miterlimit="10" d="M375.663,170.831l19.384-22.979
		c-5.931-9.867-12.91-19.282-20.943-28.086l-12.092,12.357c0,0-7.271,6.145-2.271,14.279
		C366.255,154.414,371.087,161.944,375.663,170.831z"/>
	<path id="pato26" fill="none" stroke="#FFFFFF" stroke-width="3" stroke-miterlimit="10" d="M403.042,138.377l18.94-22.439
		c-5.924-8.628-12.445-16.827-19.527-24.504l-12.002,12.002c0,0-7.438,6.261-2.274,14.432
		C393.616,124.379,398.562,131.229,403.042,138.377z"/>
	<path id="pato25" fill="none" stroke="#FFFFFF" stroke-width="3" stroke-miterlimit="10" d="M401.882,229.741l17.278,0.189
		c-0.571-12.425-2.43-24.515-5.436-36.141l-29.826-1.838c3.193,9.802,5.191,18.742,6.281,29.3
		C392.392,230.541,401.882,229.741,401.882,229.741z"/>
	<path id="pato24" fill="none" stroke="#FFFFFF" stroke-width="3" stroke-miterlimit="10" d="M426.843,281.383l29.258-2.479
		c2.406-12.949,3.672-26.305,3.672-39.954c0-14.571-1.438-28.799-4.17-42.562l-29.221-1.811c3.461,14.425,5.215,29.259,5.215,44.372
		C431.597,253.381,430.003,267.567,426.843,281.383z"/>
	<path id="pato23" fill="none" stroke="#FFFFFF" stroke-width="3" stroke-miterlimit="10" d="M386.743,361.557
		c-5.059,8.146,2.312,14.424,2.312,14.424l11.93,11.932c8.191-8.763,15.674-18.201,22.342-28.227l-19.371-21.938
		C398.849,346.104,393.11,354.055,386.743,361.557z"/>
	<path id="pato22" fill="none" stroke="#FFFFFF" stroke-width="3" stroke-miterlimit="10" d="M419.448,247.951l-17.301,0.182
		c0,0-9.484-0.793-11.699,8.492c-1.039,10.213-2.94,18.902-5.967,28.346l29.955-2.537
		C417.181,271.314,418.896,259.785,419.448,247.951z"/>
	<path id="pato21" fill="none" stroke="#FFFFFF" stroke-width="3" stroke-miterlimit="10" d="M395.644,328.344l-19.832-22.442
		c-7.115,14.198-16.527,27.319-28.08,38.876c-11.211,11.219-23.906,20.425-37.625,27.463l22.982,19.388
		C358.903,376.171,380.481,354.368,395.644,328.344z"/>
	<path id="pato20" fill="none" stroke="#FFFFFF" stroke-width="3" stroke-miterlimit="10" d="M389.536,399.281l-12.006-11.998
		c0,0-6.266-7.434-14.42-2.271c-6.479,5.385-13.279,10.303-20.377,14.764l22.437,18.928
		C373.757,412.799,381.89,406.319,389.536,399.281z"/>
	<path id="pato19" fill="none" stroke="#FFFFFF" stroke-width="3" stroke-miterlimit="10" d="M260.026,387.651
		c-9.274,2.219-8.479,11.702-8.479,11.702l-0.187,17.293c12.269-0.575,24.203-2.396,35.688-5.325l1.847-29.812
		C279.259,384.633,270.431,386.586,260.026,387.651z"/>
	<path id="pato18" fill="none" stroke="#FFFFFF" stroke-width="3" stroke-miterlimit="10" d="M241.896,89.285
		c16.067,0,31.73,2.525,46.566,7.366l-2.539-30.031c-14.078-3.593-28.822-5.514-44.027-5.514c-15.77,0-31.055,2.063-45.61,5.922
		l-1.856,29.914C209.538,91.909,225.515,89.285,241.896,89.285z"/>
	<path id="pato17" fill="none" stroke="#FFFFFF" stroke-width="3" stroke-miterlimit="10" d="M309.026,105.455
		c9.812,4.881,17.887,9.951,26.521,16.98c8.133,4.997,14.276-2.27,14.276-2.27l12.359-12.098
		c-9.687-8.822-20.109-16.367-31.051-22.671l-17.598,15.547L309.026,105.455z"/>
	<path id="pato16" fill="none" stroke="#FFFFFF" stroke-width="3" stroke-miterlimit="10" d="M364.728,94.217
		c8.148,5.065,14.418-2.312,14.418-2.312l11.941-11.925c-8.81-8.244-18.31-15.752-28.394-22.456l-21.944,19.384
		C349.169,82.038,357.183,87.807,364.728,94.217z"/>
	<path id="pato15" fill="none" stroke="#FFFFFF" stroke-width="3" stroke-miterlimit="10" d="M250.674,21.233v16.976
		c0,0-0.821,9.681,8.601,11.804c8.635,0.789,17.188,2.173,25.594,4.125l-2.473-29.272C271.911,22.889,261.308,21.666,250.674,21.233
		z"/>
	<path id="pato14" fill="none" stroke="#FFFFFF" stroke-width="3" stroke-miterlimit="10" d="M88.463,148.99l19.804,22.423
		c7.072-13.977,16.397-26.892,27.794-38.299c11.475-11.462,24.488-20.832,38.559-27.921l-23.053-19.452
		C125.556,101.116,103.783,122.923,88.463,148.99z"/>
	<path id="pato13" fill="none" stroke="#FFFFFF" stroke-width="3" stroke-miterlimit="10" d="M80.229,139.664
		c7.747-12.584,16.932-24.258,27.531-34.856c10.418-10.426,21.871-19.504,34.234-27.162l-22.451-18.947
		c-11.032,7.493-21.35,15.952-30.804,25.291l-0.163,0.157c-10.32,10.23-19.617,21.476-27.719,33.582L80.229,139.664z"/>
	<path id="pato12" fill="none" stroke="#FFFFFF" stroke-width="3" stroke-miterlimit="10" d="M225.975,49.866
		c9.335-2.171,8.563-11.827,8.563-11.827V21.17c-11.966,0.401-23.887,1.786-35.677,4.151l-1.8,29.203
		C206.547,52.235,216.203,50.677,225.975,49.866z"/>
	<path id="pato11" fill="none" stroke="#FFFFFF" stroke-width="3" stroke-miterlimit="10" d="M64.062,238.951
		c0,15.447,1.977,30.432,5.669,44.725l29.87,1.846c-4.84-14.834-7.374-30.51-7.374-46.569c0-16.459,2.65-32.51,7.73-47.674
		l-30.122,2.548C66.063,208.238,64.062,223.358,64.062,238.951z"/>
	<path id="pato10" fill="none" stroke="#FFFFFF" stroke-width="3" stroke-miterlimit="10" d="M24.228,229.55v18.87
		c0.486,11.125,1.805,22.039,3.884,32.67l29.194,1.811c-3.395-14.292-5.119-28.985-5.119-43.95c0-15.004,1.738-29.736,5.152-44.06
		l-29.341,2.482C25.974,207.851,24.688,218.598,24.228,229.55z"/>
	<path id="pato9" fill="none" stroke="#FFFFFF" stroke-width="3" stroke-miterlimit="10" d="M110.033,358.256l12.098-12.361
		c0,0,7.259-6.139,2.27-14.275c-6.73-8.268-11.658-16.014-16.343-25.271l-19.442,23.021
		C94.659,339.521,101.787,349.21,110.033,358.256z"/>
	<path id="pato8" fill="none" stroke="#FFFFFF" stroke-width="3" stroke-miterlimit="10" d="M81.677,386.586l11.998-12.004
		c0,0,7.43-6.263,2.27-14.43c-5.619-6.749-10.731-13.852-15.352-21.279l-18.95,22.465C67.697,370.235,74.389,378.688,81.677,386.586
		z"/>
	<path id="pato7" fill="none" stroke="#FFFFFF" stroke-width="3" stroke-miterlimit="10" d="M148.584,355.579
		c-8.139-4.991-14.277,2.276-14.277,2.276l-12.363,12.092c9.367,8.527,19.428,15.87,29.963,22.039l22.434-19.809
		C164.867,367.408,156.985,362.43,148.584,355.579z"/>
	<path id="pato6" fill="none" stroke="#FFFFFF" stroke-width="3" stroke-miterlimit="10" d="M233.554,416.59l-0.189-17.283
		c0,0,0.793-9.487-8.488-11.705c-10.736-1.102-19.801-3.14-29.829-6.443l2.552,30.053C209.17,414.168,221.194,416.02,233.554,416.59
		z"/>
	<path id="pato5" fill="none" stroke="#FFFFFF" stroke-width="3" stroke-miterlimit="10" d="M120.407,419.805l21.927-19.353
		c-8.043-4.953-15.699-10.517-22.941-16.651c-8.132-5.062-14.42,2.31-14.42,2.31l-11.925,11.926
		C101.552,406.003,110.716,413.27,120.407,419.805z"/>
	<path id="pato4" fill="none" stroke="#FFFFFF" stroke-width="3" stroke-miterlimit="10" d="M259.595,131.484
		c22.359,3.631,42.959,14.135,59.299,30.465c16.838,16.854,27.48,38.243,30.781,61.418c2.504,9.146,12.16,8.093,12.16,8.093h16.916
		c-3.748-69.634-59.463-125.441-129.06-129.346v18.691C249.692,120.805,249.431,129.745,259.595,131.484z"/>
	<path id="pato3" fill="none" stroke="#FFFFFF" stroke-width="3" stroke-miterlimit="10" d="M134.188,222.864
		c3.378-22.979,13.981-44.186,30.716-60.916c16.194-16.191,36.594-26.658,58.738-30.37c10.738-2.134,9.912-10.638,9.912-10.638
		v-18.793c-69.346,4.168-124.766,59.867-128.517,129.313h17.367C122.403,231.46,131.929,232.292,134.188,222.864z"/>
	<path id="pato2" fill="none" stroke="#FFFFFF" stroke-width="3" stroke-miterlimit="10" d="M349.222,257.467
		c-3.758,22.041-14.195,42.342-30.328,58.479c-20.568,20.565-47.906,31.896-76.998,31.896c-23.914,0-46.645-7.668-65.418-21.82
		c-8.127-4.863-14.635,3.223-14.635,3.223l-11.605,11.607c24.284,21.854,56.414,35.162,91.658,35.162
		c72.789,0,132.318-56.746,136.785-128.408h-18.65C360.03,247.605,350.349,248.047,349.222,257.467z"/>
	<path id="pato1" fill="none" stroke="#FFFFFF" stroke-width="3" stroke-miterlimit="10" d="M138.894,329.362l12.275-12.28
		c0,0,7.562-6.615,2.279-14.588c-9.91-13.727-16.408-29.473-19.07-46.193c-1.765-9.234-11.801-8.695-11.801-8.695h-17.464
		C107.065,278.852,119.479,307.264,138.894,329.362z"/>
</g>
</svg>
